<?xml version="1.0" encoding="UTF-8"?>
<svg width="19px" height="21px" viewBox="0 0 19 21" version="1.1" xmlns="http://www.w3.org/2000/svg" xmlns:xlink="http://www.w3.org/1999/xlink">
    <!-- Generator: Sketch 53.2 (72643) - https://sketchapp.com -->
    <title>I</title>
    <desc>Created with Sketch.</desc>
    <defs>
        <linearGradient x1="128.719779%" y1="135.071989%" x2="-62.2820811%" y2="-67.2209821%" id="linearGradient-1">
            <stop stop-color="#ED88FF" offset="0%"></stop>
            <stop stop-color="#0057EB" offset="100%"></stop>
        </linearGradient>
        <path d="M443.025,5599.305 C443.70167,5599.305 444.273331,5599.54416 444.74,5600.0225 C445.206669,5600.50084 445.44,5601.07833 445.44,5601.755 C445.44,5602.43167 445.206669,5603.00333 444.74,5603.47 C444.273331,5603.93667 443.70167,5604.17 443.025,5604.17 C442.34833,5604.17 441.782502,5603.93667 441.3275,5603.47 C440.872498,5603.00333 440.645,5602.43167 440.645,5601.755 C440.645,5601.07833 440.872498,5600.50084 441.3275,5600.0225 C441.782502,5599.54416 442.34833,5599.305 443.025,5599.305 Z M450.795,5605.605 L450.795,5606.235 C451.54167,5605.86166 452.381662,5605.69833 453.315,5605.745 C454.248338,5605.79167 455.08833,5606.00166 455.835,5606.375 C456.628337,5606.81834 457.264164,5607.46 457.7425,5608.3 C458.220836,5609.14 458.46,5610.00333 458.46,5610.89 L458.46,5619.15 L454.61,5619.15 L454.61,5610.89 C454.61,5610.70333 454.540001,5610.48167 454.4,5610.225 C454.259999,5609.96833 454.108334,5609.81667 453.945,5609.77 C453.548331,5609.56 453.163335,5609.47833 452.79,5609.525 C452.416665,5609.57167 452.078335,5609.665 451.775,5609.805 C451.424998,5609.96833 451.098335,5610.19 450.795,5610.47 L450.795,5619.15 L446.875,5619.15 L446.875,5605.605 L450.795,5605.605 Z M441.065,5619.15 L441.065,5605.605 L444.985,5605.605 L444.985,5619.15 L441.065,5619.15 Z" id="path-2"></path>
    </defs>
    <g id="Page-1" stroke="none" stroke-width="1" fill="none" fill-rule="evenodd">
        <g id="h4_main" transform="translate(-440.000000, -5599.000000)" fill-rule="nonzero">
            <g id="I">
                <use fill="#4B597B" xlink:href="#path-2"></use>
                <use fill="url(#linearGradient-1)" xlink:href="#path-2"></use>
            </g>
        </g>
    </g>
</svg>