<?xml version="1.0" encoding="UTF-8"?>
<svg width="21px" height="18px" viewBox="0 0 21 18" version="1.1" xmlns="http://www.w3.org/2000/svg" xmlns:xlink="http://www.w3.org/1999/xlink">
    <!-- Generator: Sketch 53.2 (72643) - https://sketchapp.com -->
    <title>L</title>
    <desc>Created with Sketch.</desc>
    <defs>
        <linearGradient x1="147.681972%" y1="106.411309%" x2="-74.4108607%" y2="-37.2466075%" id="linearGradient-1">
            <stop stop-color="#ED88FF" offset="0%"></stop>
            <stop stop-color="#0057EB" offset="100%"></stop>
        </linearGradient>
        <path d="M464.78,5498.345 C464.219997,5499.16167 463.520004,5499.89666 462.68,5500.55 L462.68,5501.04 C462.68,5502.44001 462.417503,5503.85749 461.8925,5505.2925 C461.367497,5506.72751 460.597505,5508.02249 459.5825,5509.1775 C458.567495,5510.33251 457.319174,5511.27166 455.8375,5511.995 C454.355826,5512.71834 452.646676,5513.08 450.71,5513.08 C449.519994,5513.08 448.382505,5512.91084 447.2975,5512.5725 C446.212495,5512.23416 445.191671,5511.76167 444.235,5511.155 C444.398334,5511.17833 444.561666,5511.19 444.725,5511.19 L445.25,5511.19 C447.256677,5511.19 448.994993,5510.59501 450.465,5509.405 C449.531662,5509.38167 448.70917,5509.09584 447.9975,5508.5475 C447.28583,5507.99916 446.801668,5507.305 446.545,5506.465 C446.825001,5506.535 447.081665,5506.57 447.315,5506.57 C447.525001,5506.57 447.717499,5506.55833 447.8925,5506.535 C448.067501,5506.51167 448.248332,5506.47667 448.435,5506.43 C447.454995,5506.22 446.64417,5505.73584 446.0025,5504.9775 C445.36083,5504.21916 445.04,5503.32667 445.04,5502.3 L445.04,5502.265 C445.320001,5502.405 445.617498,5502.52167 445.9325,5502.615 C446.247502,5502.70833 446.603331,5502.755 447,5502.755 C446.39333,5502.38166 445.926668,5501.89167 445.6,5501.285 C445.273332,5500.67833 445.11,5500.00167 445.11,5499.255 C445.11,5498.50833 445.296665,5497.79667 445.67,5497.12 C446.720005,5498.42667 447.991659,5499.47083 449.485,5500.2525 C450.978341,5501.03417 452.599991,5501.46 454.35,5501.53 C454.28,5501.25 454.245,5500.94667 454.245,5500.62 C454.245,5500.03666 454.355832,5499.4825 454.5775,5498.9575 C454.799168,5498.4325 455.102498,5497.9775 455.4875,5497.5925 C455.872502,5497.2075 456.315831,5496.90417 456.8175,5496.6825 C457.319169,5496.46083 457.861664,5496.35 458.445,5496.35 C459.075003,5496.35 459.646664,5496.4725 460.16,5496.7175 C460.673336,5496.9625 461.128331,5497.28333 461.525,5497.68 C461.991669,5497.61 462.458331,5497.48167 462.925,5497.295 C463.391669,5497.10833 463.823331,5496.91 464.22,5496.7 C463.846665,5497.68 463.228338,5498.45 462.365,5499.01 C462.808336,5498.96333 463.228331,5498.88167 463.625,5498.765 C464.021669,5498.64833 464.406665,5498.50833 464.78,5498.345 Z" id="path-2"></path>
    </defs>
    <g id="Page-1" stroke="none" stroke-width="1" fill="none" fill-rule="evenodd">
        <g id="h4_main" transform="translate(-444.000000, -5496.000000)" fill-rule="nonzero">
            <g id="L">
                <use fill="#4B597B" xlink:href="#path-2"></use>
                <use fill="url(#linearGradient-1)" xlink:href="#path-2"></use>
            </g>
        </g>
    </g>
</svg>