<?xml version="1.0" encoding="UTF-8"?>
<svg width="506px" height="428px" viewBox="0 0 506 428" version="1.1" xmlns="http://www.w3.org/2000/svg" xmlns:xlink="http://www.w3.org/1999/xlink">
    <!-- Generator: Sketch 53.2 (72643) - https://sketchapp.com -->
    <title>” copy</title>
    <desc>Created with Sketch.</desc>
    <defs>
        <linearGradient x1="147.681972%" y1="110.865766%" x2="-32.2425765%" y2="-6.9115514%" id="linearGradient-1">
            <stop stop-color="#ED88FF" offset="0%"></stop>
            <stop stop-color="#0057EB" offset="100%"></stop>
        </linearGradient>
    </defs>
    <g id="Page-1" stroke="none" stroke-width="1" fill="none" fill-rule="evenodd" opacity="0.200000003">
        <g id="h4_main" transform="translate(-36.000000, -3818.000000)" fill="url(#linearGradient-1)" fill-rule="nonzero">
            <path d="M384.382353,4237.06099 L363.823529,4215.60735 C354.229412,4204.16541 356.970588,4191.29323 365.194118,4184.14202 C380.270588,4172.70008 461.135294,4109.76942 462.505882,4012.51295 C462.505882,4012.51295 439.205882,4022.52464 407.682353,4022.52464 C354.229412,4022.52464 309,3978.18713 309,3920.97744 C309,3865.19799 354.229412,3818 417.276471,3818 C469.358824,3818 542,3859.47703 542,3983.9081 C542,4134.08354 446.058824,4212.74687 414.535294,4239.92147 C404.941176,4247.07268 395.347059,4249.93317 384.382353,4237.06099 Z M111.382353,4237.06099 L90.8235294,4215.60735 C81.2294118,4204.16541 83.9705882,4191.29323 92.1941176,4184.14202 C107.270588,4172.70008 188.135294,4109.76942 189.505882,4012.51295 C189.505882,4012.51295 166.205882,4022.52464 134.682353,4022.52464 C81.2294118,4022.52464 36,3978.18713 36,3920.97744 C36,3865.19799 81.2294118,3818 144.276471,3818 C196.358824,3818 269,3859.47703 269,3983.9081 C269,4134.08354 173.058824,4212.74687 141.535294,4239.92147 C131.941176,4247.07268 122.347059,4249.93317 111.382353,4237.06099 Z" id="”-copy"></path>
        </g>
    </g>
</svg>