<?xml version="1.0" encoding="UTF-8"?>
<svg width="46px" height="37px" viewBox="0 0 46 37" version="1.1" xmlns="http://www.w3.org/2000/svg" xmlns:xlink="http://www.w3.org/1999/xlink">
    <!-- Generator: Sketch 53.2 (72643) - https://sketchapp.com -->
    <title>” copy 3</title>
    <desc>Created with Sketch.</desc>
    <defs>
        <linearGradient x1="-91.6073848%" y1="-29.8788975%" x2="223.877601%" y2="191.859507%" id="linearGradient-1">
            <stop stop-color="#ED88FF" offset="0%"></stop>
            <stop stop-color="#0057EB" offset="100%"></stop>
        </linearGradient>
    </defs>
    <g id="Page-1" stroke="none" stroke-width="1" fill="none" fill-rule="evenodd">
        <g id="h4_main" transform="translate(-961.000000, -4373.000000)" fill="url(#linearGradient-1)" fill-rule="nonzero">
            <path d="M992.663957,4409.22723 L990.794038,4407.3726 C989.921409,4406.38346 990.170732,4405.27068 990.918699,4404.65246 C992.289973,4403.66332 999.644986,4398.22306 999.769648,4389.81537 C999.769648,4389.81537 997.650407,4390.68087 994.783198,4390.68087 C989.921409,4390.68087 985.807588,4386.84795 985.807588,4381.90226 C985.807588,4377.0802 989.921409,4373 995.655827,4373 C1000.39295,4373 1007,4376.58563 1007,4387.34252 C1007,4400.32498 998.273713,4407.12531 995.406504,4409.47452 C994.533875,4410.09273 993.661247,4410.34002 992.663957,4409.22723 Z M967.856369,4409.22723 L965.98645,4407.3726 C965.113821,4406.38346 965.363144,4405.27068 966.111111,4404.65246 C967.482385,4403.66332 974.837398,4398.22306 974.96206,4389.81537 C974.96206,4389.81537 972.842818,4390.68087 969.97561,4390.68087 C965.113821,4390.68087 961,4386.84795 961,4381.90226 C961,4377.0802 965.113821,4373 970.848238,4373 C975.585366,4373 982.192412,4376.58563 982.192412,4387.34252 C982.192412,4400.32498 973.466125,4407.12531 970.598916,4409.47452 C969.726287,4410.09273 968.853659,4410.34002 967.856369,4409.22723 Z" id="”-copy-3" transform="translate(984.000000, 4391.500000) scale(-1, -1) translate(-984.000000, -4391.500000) "></path>
        </g>
    </g>
</svg>