<?xml version="1.0" encoding="UTF-8"?>
<svg width="50px" height="50px" viewBox="0 0 50 50" version="1.1" xmlns="http://www.w3.org/2000/svg" xmlns:xlink="http://www.w3.org/1999/xlink">
    <!-- Generator: Sketch 57 (83077) - https://sketch.com -->
    <title>Combined Shape</title>
    <desc>Created with Sketch.</desc>
    <defs>
        <linearGradient x1="147.681972%" y1="135.068486%" x2="-12.3919781%" y2="-11.0662123%" id="linearGradient-1">
            <stop stop-color="#ED88FF" offset="0%"></stop>
            <stop stop-color="#2A74F2" offset="100%"></stop>
        </linearGradient>
    </defs>
    <g id="EN" stroke="none" stroke-width="1" fill="none" fill-rule="evenodd">
        <g id="casestudy" transform="translate(-572.000000, -787.000000)" fill="url(#linearGradient-1)">
            <g id="icon2" transform="translate(572.000000, 787.000000)">
                <g id="Group-3" transform="translate(0.000000, 0.385745)">
                    <path d="M33.8277436,18.1252145 C42.4866164,18.1252145 49.5320345,25.1697055 49.5320345,33.8276509 C49.5320345,42.4855964 42.4866164,49.5310145 33.8277436,49.5310145 C25.1688709,49.5310145 18.1234527,42.4855964 18.1234527,33.8276509 C18.1234527,32.9523055 18.8328164,32.2438691 19.7072345,32.2438691 C20.58258,32.2438691 21.2910164,32.9523055 21.2910164,33.8276509 C21.2910164,40.7404691 26.9149255,46.3634509 33.8277436,46.3634509 C40.7405618,46.3634509 46.3644709,40.7404691 46.3644709,33.8276509 C46.3644709,26.9148327 40.7405618,21.2927782 33.8277436,21.2927782 C32.9533255,21.2927782 32.2439618,20.5834145 32.2439618,19.7089964 C32.2439618,18.8345782 32.9533255,18.1252145 33.8277436,18.1252145 Z M29.0686091,28.1187109 C32.2157727,24.9724745 37.3371,24.9724745 40.4833364,28.1177836 C41.1018273,28.7362745 41.1027545,29.7386564 40.4842636,30.3571473 C39.8676273,30.9765655 38.8633909,30.9756382 38.2449,30.3580745 C36.3319364,28.4469655 33.2200091,28.4451109 31.3098273,30.3580745 C31.3061182,30.3617836 31.3042636,30.3654927 31.3005545,30.3692018 L31.3005545,30.3692018 L34.4301,30.3692018 C35.3045182,30.3692018 36.0138818,31.0776382 36.0138818,31.9529836 C36.0138818,32.8274018 35.3045182,33.5367655 34.4301,33.5367655 L34.4301,33.5367655 L29.9040818,33.5367655 C29.8920273,33.7305655 29.8920273,33.9234382 29.9040818,34.1172382 L29.9040818,34.1172382 L33.3878455,34.1172382 C34.2622636,34.1172382 34.9716273,34.8256745 34.9716273,35.70102 C34.9716273,36.5754382 34.2622636,37.2848018 33.3878455,37.2848018 L33.3878455,37.2848018 L31.2996273,37.2848018 C31.3033364,37.2885109 31.3061182,37.2931473 31.3098273,37.2959291 C33.2209364,39.2079655 36.3319364,39.2070382 38.2449,37.2950018 C38.8624636,36.6765109 39.8667,36.6774382 40.4842636,37.2959291 C41.1027545,37.91442 41.1018273,38.9168018 40.4833364,39.5352927 C38.9097545,41.1088745 36.8419364,41.8942745 34.7759727,41.8942745 C32.7090818,41.8942745 30.6431182,41.1088745 29.0686091,39.5352927 C28.3981909,38.8639473 27.8789182,38.0989473 27.4941,37.2848018 L27.4941,37.2848018 L25.7638091,37.2848018 C24.8893909,37.2848018 24.1800273,36.5754382 24.1800273,35.70102 C24.1800273,34.8256745 24.8893909,34.1172382 25.7638091,34.1172382 L25.7638091,34.1172382 L26.7244636,34.1172382 C26.7170455,33.9206564 26.7179727,33.7250018 26.7253909,33.52842 C25.8899182,33.4848382 25.2232091,32.7995836 25.2232091,31.9529836 C25.2232091,31.0776382 25.9325727,30.3692018 26.8069909,30.3692018 L26.8069909,30.3692018 L27.4941,30.3692018 C27.8789182,29.5559836 28.3981909,28.7909836 29.0686091,28.1187109 Z M15.7033636,0 C24.3622364,0 31.4067273,7.04449091 31.4067273,15.7024364 C31.4067273,24.3622364 24.3622364,31.4076545 15.7033636,31.4076545 C7.04449091,31.4076545 0,24.3622364 0,15.7024364 C0,7.04449091 7.04449091,0 15.7033636,0 Z M15.7033636,3.16756364 C8.79147273,3.16756364 3.16756364,8.79054545 3.16756364,15.7024364 C3.16756364,22.6161818 8.79147273,28.2400909 15.7033636,28.2400909 C22.6152545,28.2400909 28.2391636,22.6161818 28.2391636,15.7024364 C28.2391636,8.79054545 22.6152545,3.16756364 15.7033636,3.16756364 Z M16.0263327,5.91618545 C16.8530479,5.91618545 17.5308842,6.5480932 17.6036478,7.35571467 L17.6101145,7.49996727 L17.6101145,8.52089455 C19.9922782,9.05685818 21.4963145,10.6109673 21.9284236,12.0927491 C22.1722964,12.9319309 21.6910418,13.8109855 20.8500055,14.0557855 C20.01546,14.3033673 19.1326964,13.8184036 18.8869691,12.9782945 C18.7061509,12.3560945 17.6425691,11.4798218 15.8473691,11.4798218 C13.8732055,11.4798218 12.7818055,12.1381855 12.7818055,12.5944036 C12.7818055,13.01724 13.7062964,13.6310945 16.3008055,14.0863855 C16.3035873,14.0873127 16.3063691,14.08824 16.3100782,14.0891673 C17.9940055,14.3849673 22.4402782,15.1722218 22.4402782,18.7978582 C22.4402782,20.9217061 20.6284162,22.5067039 17.8713338,22.9584622 L17.6101145,22.9974764 L17.6101145,23.9080582 C17.6101145,24.7824764 16.9016782,25.49184 16.0263327,25.49184 C15.2004933,25.49184 14.5218785,24.8591052 14.4490258,24.0521729 L14.4425509,23.9080582 L14.4425509,22.9566764 C11.5012418,22.5078764 9.34996909,20.9500582 8.99018727,18.8590582 C8.84275091,17.9966945 9.42136909,17.1779127 10.2837327,17.0295491 C11.1470236,16.88304 11.9639509,17.4607309 12.1132418,18.3221673 C12.2115327,18.8980036 13.6636418,19.9235673 16.2090055,19.9235673 C18.3612055,19.9235673 19.2727145,19.1186945 19.2727145,18.7978582 C19.2727145,17.9966945 17.3653145,17.4913309 15.7602055,17.2075855 C15.7574236,17.2066582 15.7546418,17.2075855 15.75186,17.2066582 C14.0734964,16.9117855 9.61424182,16.1273127 9.61424182,12.5944036 C9.61424182,10.767283 11.0319933,8.93057113 14.145667,8.44045631 L14.4425509,8.39849455 L14.4425509,7.49996727 C14.4425509,6.62462182 15.1519145,5.91618545 16.0263327,5.91618545 Z" id="Combined-Shape"></path>
                </g>
            </g>
        </g>
    </g>
</svg>