<?xml version="1.0" encoding="UTF-8"?>
<svg width="44px" height="39px" viewBox="0 0 44 39" version="1.1" xmlns="http://www.w3.org/2000/svg" xmlns:xlink="http://www.w3.org/1999/xlink">
    <!-- Generator: Sketch 54.1 (76490) - https://sketchapp.com -->
    <title>Group</title>
    <desc>Created with Sketch.</desc>
    <defs>
        <linearGradient x1="113.814736%" y1="122.200255%" x2="-12.3919781%" y2="3.98463568%" id="linearGradient-1">
            <stop stop-color="#ED88FF" offset="0%"></stop>
            <stop stop-color="#2A74F2" offset="100%"></stop>
        </linearGradient>
        <linearGradient x1="209.324056%" y1="50.9082218%" x2="-12.3919781%" y2="49.7191445%" id="linearGradient-2">
            <stop stop-color="#ED88FF" offset="0%"></stop>
            <stop stop-color="#2A74F2" offset="100%"></stop>
        </linearGradient>
        <linearGradient x1="89.3872799%" y1="152.488762%" x2="26.7923088%" y2="-11.0687275%" id="linearGradient-3">
            <stop stop-color="#ED88FF" offset="0%"></stop>
            <stop stop-color="#2A74F2" offset="100%"></stop>
        </linearGradient>
        <linearGradient x1="243.681019%" y1="258.402004%" x2="-12.3919781%" y2="-1.94703238%" id="linearGradient-4">
            <stop stop-color="#ED88FF" offset="0%"></stop>
            <stop stop-color="#2A74F2" offset="100%"></stop>
        </linearGradient>
    </defs>
    <g id="Page-1" stroke="none" stroke-width="1" fill="none" fill-rule="evenodd" stroke-linejoin="round">
        <g id="h4_productdesign" transform="translate(-160.000000, -2294.000000)" stroke-width="2.8">
            <g id="Group" transform="translate(162.000000, 2296.000000)">
                <polygon id="Stroke-1" stroke="url(#linearGradient-1)" points="20 34.7217806 0 10.3080286 9.41176471 1.0658141e-13 30.5882353 1.0658141e-13 40 10.3080286"></polygon>
                <polyline id="Stroke-3" stroke="url(#linearGradient-2)" points="0 10.3080286 12.9411765 13.0206677 27.0588235 13.0206677 40 10.3080286"></polyline>
                <polyline id="Stroke-5" stroke="url(#linearGradient-3)" points="30.5882353 1.0658141e-13 27.0588235 13.0206677 20 34.7217806 12.9411765 13.0206677 9.41176471 1.0658141e-13"></polyline>
                <polyline id="Stroke-7" stroke="url(#linearGradient-4)" points="12.9411765 13.0206677 20 3.64153152e-14 27.0588235 13.0206677"></polyline>
            </g>
        </g>
    </g>
</svg>