<?xml version="1.0" encoding="UTF-8"?>
<svg width="51px" height="40px" viewBox="0 0 51 40" version="1.1" xmlns="http://www.w3.org/2000/svg" xmlns:xlink="http://www.w3.org/1999/xlink">
    <!-- Generator: Sketch 57 (83077) - https://sketch.com -->
    <title>Combined Shape</title>
    <desc>Created with Sketch.</desc>
    <defs>
        <linearGradient x1="147.681972%" y1="99.2040887%" x2="-12.3919781%" y2="14.6789606%" id="linearGradient-1">
            <stop stop-color="#ED88FF" offset="0%"></stop>
            <stop stop-color="#2A74F2" offset="100%"></stop>
        </linearGradient>
    </defs>
    <g id="EN" stroke="none" stroke-width="1" fill="none" fill-rule="evenodd">
        <g id="casestudy" transform="translate(-936.000000, -792.000000)" fill="url(#linearGradient-1)">
            <g id="icon3" transform="translate(936.000000, 792.000000)">
                <g id="Group-3" transform="translate(0.000000, 0.481073)">
                    <path d="M42.1576853,-2.4158453e-13 C43.0786609,-2.4158453e-13 43.8240268,0.745365854 43.8240268,1.66634146 C43.8240268,2.53792041 43.1550558,3.25363962 42.3015601,3.32656414 L42.1576853,3.33268293 L10.1732951,3.33268293 L10.1732951,26.9482927 C10.1732951,27.2295935 10.1021569,27.5054743 9.96722012,27.7505285 L9.87866095,27.8936585 L4.84061217,35.1970732 L45.8230512,35.1970732 L40.7869536,27.8936585 C40.626791,27.6619512 40.5282815,27.394336 40.499894,27.1162195 L40.4913439,26.9482927 L40.4913439,6.63512195 C40.4913439,5.71512195 41.2376853,4.96878049 42.1576853,4.96878049 C43.0301885,4.96878049 43.7450808,5.63862712 43.8179157,6.49138543 L43.8240268,6.63512195 L43.8240268,26.4292683 L50.368417,35.9170732 C50.7196366,36.4263415 50.7596366,37.0897561 50.4718317,37.6380488 C50.2089048,38.1406504 49.7090607,38.4710976 49.1503971,38.5226818 L48.9967097,38.5297561 L1.66695363,38.5297561 C1.04744143,38.5297561 0.478660947,38.1863415 0.190856069,37.6380488 C-0.0729650695,37.1354472 -0.0613390533,36.5361111 0.213710631,36.0474458 L0.295246313,35.9170732 L6.84061217,26.4282927 L6.84061217,1.66634146 C6.84061217,0.793838254 7.5104588,0.0789460172 8.36321711,0.00611110914 L8.50695363,-2.4158453e-13 L42.1576853,-2.4158453e-13 Z M37.4898805,25.281561 C38.4098805,25.281561 39.1562219,26.0279024 39.1562219,26.9479024 C39.1562219,27.8194814 38.4863753,28.5352006 37.633617,28.6081251 L37.4898805,28.6142439 L13.1757341,28.6142439 C12.2557341,28.6142439 11.5093927,27.8679024 11.5093927,26.9479024 C11.5093927,26.0763235 12.1792393,25.3606043 13.0319976,25.2876798 L13.1757341,25.281561 L37.4898805,25.281561 Z M21.4658805,6.58107317 C22.3858805,6.58107317 23.1322219,7.32741463 23.1322219,8.24741463 C23.1322219,9.16741463 22.3858805,9.9137561 21.4658805,9.9137561 C21.3078317,9.9137561 21.2492951,9.93912195 21.2492951,9.93912195 C21.0775878,10.1283902 20.9634414,11.1186341 20.901978,11.6513171 C20.8190512,12.366439 20.6912463,13.468878 20.2063683,14.3918049 C20.6912463,15.3157073 20.8190512,16.4181463 20.901978,17.1332683 C20.9634414,17.6620488 21.0766122,18.6405854 21.2678317,18.8571707 C21.2727097,18.8522927 21.3341731,18.8708293 21.4658805,18.8708293 C22.3858805,18.8708293 23.1322219,19.6161951 23.1322219,20.5371707 C23.1322219,21.4571707 22.3858805,22.2035122 21.4658805,22.2035122 C18.1331975,22.2035122 17.7673439,19.0376585 17.5907585,17.5166829 C17.5400268,17.0727805 17.4580756,16.3654634 17.3371,16.0600976 C17.3224658,16.059122 17.3068561,16.0581463 17.2922219,16.0571707 C16.4073439,16.0171707 15.7010024,15.2874146 15.7010024,14.3918049 C15.7010024,13.4825366 16.4307585,12.7430244 17.3361244,12.726439 C17.4580756,12.4220488 17.5400268,11.7127805 17.5907585,11.2679024 C17.7673439,9.74692683 18.1331975,6.58107317 21.4658805,6.58107317 Z M29.1976853,6.58097561 C32.5303683,6.58097561 32.8962219,9.74682927 33.0728073,11.2678049 C33.123539,11.7117073 33.2054902,12.4190244 33.3264658,12.7243902 C33.3411,12.7253659 33.3567097,12.7263415 33.3713439,12.7273171 C34.2562219,12.7673171 34.9625634,13.4970732 34.9625634,14.3926829 C34.9625634,15.3019512 34.2328073,16.0414634 33.3274414,16.0580488 C33.2054902,16.362439 33.123539,17.0717073 33.0728073,17.5165854 C32.8962219,19.037561 32.5303683,22.2034146 29.1976853,22.2034146 C28.2776853,22.2034146 27.5313439,21.4570732 27.5313439,20.5370732 C27.5313439,19.6170732 28.2776853,18.8707317 29.1976853,18.8707317 C29.3557341,18.8707317 29.4142707,18.8453659 29.4142707,18.8453659 C29.585978,18.6560976 29.7001244,17.6658537 29.7615878,17.1331707 C29.8445146,16.4180488 29.9723195,15.3156098 30.4571975,14.3926829 C29.9723195,13.4687805 29.8445146,12.3663415 29.7615878,11.6512195 C29.7001244,11.122439 29.5869536,10.1439024 29.3957341,9.92731707 C29.3928073,9.93414634 29.3293927,9.91365854 29.1976853,9.91365854 C28.2776853,9.91365854 27.5313439,9.16829268 27.5313439,8.24731707 C27.5313439,7.32731707 28.2776853,6.58097561 29.1976853,6.58097561 Z" id="Combined-Shape"></path>
                </g>
            </g>
        </g>
    </g>
</svg>