<?xml version="1.0" encoding="UTF-8"?>
<svg width="44px" height="41px" viewBox="0 0 44 41" version="1.1" xmlns="http://www.w3.org/2000/svg" xmlns:xlink="http://www.w3.org/1999/xlink">
    <!-- Generator: Sketch 55.2 (78181) - https://sketchapp.com -->
    <title>monitor</title>
    <desc>Created with Sketch.</desc>
    <defs>
        <linearGradient x1="147.681972%" y1="122.393753%" x2="-12.3919781%" y2="-1.96768521%" id="linearGradient-1">
            <stop stop-color="#ED88FF" offset="0%"></stop>
            <stop stop-color="#2A74F2" offset="100%"></stop>
        </linearGradient>
    </defs>
    <g id="Page-1" stroke="none" stroke-width="1" fill="none" fill-rule="evenodd">
        <g id="h4_development" transform="translate(-160.000000, -644.000000)" fill="url(#linearGradient-1)" fill-rule="nonzero">
            <g id="Group-9" transform="translate(160.000000, 644.000000)">
                <g id="monitor">
                    <path d="M40.5,25.7222222 L3.5,25.7222222 L3.5,26.4444444 C3.5,28.0704618 4.81842712,29.3888889 6.44444444,29.3888889 L18.6666667,29.3888889 L25.3333333,29.3888889 L37.5555556,29.3888889 C39.1815729,29.3888889 40.5,28.0704618 40.5,26.4444444 L40.5,25.7222222 Z M40.5,22.7222222 L40.5,6.44444444 C40.5,4.81842712 39.1815729,3.5 37.5555556,3.5 L6.44444444,3.5 C4.81842712,3.5 3.5,4.81842712 3.5,6.44444444 L3.5,22.7222222 L40.5,22.7222222 Z M16.2546125,37.1666667 L16.9371521,32.3888889 L6.44444444,32.3888889 C3.16157288,32.3888889 0.5,29.727316 0.5,26.4444444 L0.5,6.44444444 C0.5,3.16157288 3.16157288,0.5 6.44444444,0.5 L37.5555556,0.5 C40.8384271,0.5 43.5,3.16157288 43.5,6.44444444 L43.5,26.4444444 C43.5,29.727316 40.8384271,32.3888889 37.5555556,32.3888889 L27.0628479,32.3888889 L27.7453875,37.1666667 L29.7777778,37.1666667 C30.6062049,37.1666667 31.2777778,37.8382395 31.2777778,38.6666667 C31.2777778,39.4950938 30.6062049,40.1666667 29.7777778,40.1666667 L14.2222222,40.1666667 C13.3937951,40.1666667 12.7222222,39.4950938 12.7222222,38.6666667 C12.7222222,37.8382395 13.3937951,37.1666667 14.2222222,37.1666667 L16.2546125,37.1666667 Z M19.2850701,37.1666667 L24.7149299,37.1666667 L24.0323902,32.3888889 L19.9676098,32.3888889 L19.2850701,37.1666667 Z"></path>
                </g>
            </g>
        </g>
    </g>
</svg>