<?xml version="1.0" encoding="UTF-8"?>
<svg width="34px" height="45px" viewBox="0 0 34 45" version="1.1" xmlns="http://www.w3.org/2000/svg" xmlns:xlink="http://www.w3.org/1999/xlink">
    <!-- Generator: Sketch 55.2 (78181) - https://sketchapp.com -->
    <title>phone</title>
    <desc>Created with Sketch.</desc>
    <defs>
        <linearGradient x1="104.374255%" y1="135.071989%" x2="15.2697704%" y2="-11.0687275%" id="linearGradient-1">
            <stop stop-color="#ED88FF" offset="0%"></stop>
            <stop stop-color="#2A74F2" offset="100%"></stop>
        </linearGradient>
    </defs>
    <g id="Page-1" stroke="none" stroke-width="1" fill="none" fill-rule="evenodd">
        <g id="h4_development" transform="translate(-792.000000, -642.000000)" fill="url(#linearGradient-1)" fill-rule="nonzero">
            <g id="Group-7" transform="translate(792.000000, 642.000000)">
                <g id="phone">
                    <path d="M3.5,35.0555556 L3.5,38.3800903 C3.5,40.2466731 4.91210618,41.730769 6.61538462,41.730769 L27.3846154,41.730769 C29.0878938,41.730769 30.5,40.2466731 30.5,38.3800903 L30.5,35.0555556 L3.5,35.0555556 Z M3.5,32.0555556 L30.5,32.0555556 L30.5,6.85067871 C30.5,4.9840959 29.0878938,3.5 27.3846154,3.5 L6.61538462,3.5 C4.91210618,3.5 3.5,4.9840959 3.5,6.85067871 L3.5,32.0555556 Z M27.3846154,44.730769 L6.61538462,44.730769 C3.22097074,44.730769 0.5,41.8710821 0.5,38.3800903 L0.5,6.85067871 C0.5,3.35968688 3.22097074,0.5 6.61538462,0.5 L27.3846154,0.5 C30.7790293,0.5 33.5,3.35968688 33.5,6.85067871 L33.5,38.3800903 C33.5,41.8710821 30.7790293,44.730769 27.3846154,44.730769 Z M18.5,38.211538 C18.5,39.177538 17.71775,39.961538 16.75,39.961538 C15.78225,39.961538 15,39.177538 15,38.211538 C15,37.245538 15.78225,36.461538 16.75,36.461538 C17.71775,36.461538 18.5,37.245538 18.5,38.211538 Z M16.5,38.211538 C16.5,38.3491936 16.6122668,38.461538 16.75,38.461538 C16.8877332,38.461538 17,38.3491936 17,38.211538 C17,38.0738824 16.8877332,37.961538 16.75,37.961538 C16.6122668,37.961538 16.5,38.0738824 16.5,38.211538 Z M14.6923077,8.5 C13.8638806,8.5 13.1923077,7.82842712 13.1923077,7 C13.1923077,6.17157288 13.8638806,5.5 14.6923077,5.5 L19.3076923,5.5 C20.1361194,5.5 20.8076923,6.17157288 20.8076923,7 C20.8076923,7.82842712 20.1361194,8.5 19.3076923,8.5 L14.6923077,8.5 Z"></path>
                </g>
            </g>
        </g>
    </g>
</svg>