<?xml version="1.0" encoding="UTF-8"?>
<svg width="6px" height="9px" viewBox="0 0 6 9" version="1.1" xmlns="http://www.w3.org/2000/svg" xmlns:xlink="http://www.w3.org/1999/xlink">
    <!-- Generator: Sketch 51.2 (57519) - http://www.bohemiancoding.com/sketch -->
    <title>W</title>
    <desc>Created with Sketch.</desc>
    <defs></defs>
    <g id="new" stroke="none" stroke-width="1" fill="none" fill-rule="evenodd">
        <g id="hype2018_main" transform="translate(-897.000000, -447.000000)" fill="#b77dfb">
            <path d="M897.760742,451.483398 C897.716471,451.439127 897.694336,451.383789 897.694336,451.317383 C897.694336,451.239908 897.716471,451.179037 897.760742,451.134766 L901.5625,447.333008 C901.617839,447.277669 901.678711,447.25 901.745117,447.25 C901.811524,447.25 901.872396,447.277669 901.927734,447.333008 L902.84082,448.246094 C902.885091,448.290365 902.907227,448.345703 902.907227,448.412109 C902.907227,448.489584 902.885091,448.550456 902.84082,448.594727 L900.118164,451.317383 L902.84082,454.023438 C902.885091,454.078776 902.907227,454.139648 902.907227,454.206055 C902.907227,454.272461 902.885091,454.327799 902.84082,454.37207 L901.927734,455.285156 C901.872396,455.340495 901.811524,455.368164 901.745117,455.368164 C901.678711,455.368164 901.617839,455.340495 901.5625,455.285156 L897.760742,451.483398 Z" id="W" transform="translate(900.300781, 451.309082) scale(-1, 1) translate(-900.300781, -451.309082) "></path>
        </g>
    </g>
</svg>