<?xml version="1.0" encoding="UTF-8"?>
<svg width="74px" height="74px" viewBox="0 0 74 74" version="1.1" xmlns="http://www.w3.org/2000/svg" xmlns:xlink="http://www.w3.org/1999/xlink">
    <!-- Generator: Sketch 54.1 (76490) - https://sketchapp.com -->
    <title>Group 11</title>
    <desc>Created with Sketch.</desc>
    <defs>
        <linearGradient x1="147.681972%" y1="135.071989%" x2="-12.3919781%" y2="-11.0687275%" id="linearGradient-1">
            <stop stop-color="#ED88FF" offset="0%"></stop>
            <stop stop-color="#1868F1" offset="100%"></stop>
        </linearGradient>
    </defs>
    <g id="Page-1" stroke="none" stroke-width="1" fill="none" fill-rule="evenodd">
        <g id="h4_main" transform="translate(-161.000000, -70.000000)">
            <g id="Group-11" transform="translate(160.176210, 69.154643)">
                <rect id="Rectangle" fill="url(#linearGradient-1)" x="0.82378954" y="0.845356537" width="74" height="74" rx="6"></rect>
                <path d="M58.890997,18.6194341 L53.1908238,26.1758669 L53.1908238,33.2098975 C53.1908238,33.4236326 53.0174842,33.5966984 52.8034109,33.5966984 L50.302162,33.5966984 C50.0881993,33.5966984 49.914749,33.4236326 49.914749,33.2098975 L49.914749,26.1758669 L44.2145758,18.6194341 C44.1262457,18.5022887 44.1118561,18.345358 44.1773842,18.2141772 C44.2429123,18.0828859 44.3771786,18 44.5240635,18 L47.6554672,18 C47.7771149,18 47.8916784,18.0570255 47.9649548,18.1540573 L51.5528418,22.9103828 L55.1407287,18.1540573 C55.2138944,18.0570255 55.328458,18 55.4502163,18 L58.5815094,18 C58.7283942,18 58.8626605,18.0828859 58.9281887,18.2141772 C58.9937168,18.345358 58.9793272,18.5022887 58.890997,18.6194341 L58.890997,18.6194341 Z M57.3609371,44.9976012 C57.3609371,45.2112258 57.1874868,45.3844022 56.9735241,45.3844022 L46.1320487,45.3844022 C45.918086,45.3844022 45.7446357,45.2112258 45.7446357,44.9976012 L45.7446357,42.5731328 C45.7446357,42.3595082 45.918086,42.1863319 46.1320487,42.1863319 L56.9735241,42.1863319 C57.1874868,42.1863319 57.3609371,42.3595082 57.3609371,42.5731328 L57.3609371,44.9976012 Z M57.3609371,50.9075882 C57.3609371,51.1212128 57.1874868,51.2943891 56.9735241,51.2943891 L46.1320487,51.2943891 C45.918086,51.2943891 45.7446357,51.1212128 45.7446357,50.9075882 L45.7446357,48.4832303 C45.7446357,48.2696057 45.918086,48.0964294 46.1320487,48.0964294 L56.9735241,48.0964294 C57.1874868,48.0964294 57.3609371,48.2696057 57.3609371,48.4832303 L57.3609371,50.9075882 Z M57.3609371,57.1024817 C57.3609371,57.3161063 57.1874868,57.4892826 56.9735241,57.4892826 L46.1320487,57.4892826 C45.918086,57.4892826 45.7446357,57.3161063 45.7446357,57.1024817 L45.7446357,54.6780133 C45.7446357,54.4643887 45.918086,54.2912124 46.1320487,54.2912124 L56.9735241,54.2912124 C57.1874868,54.2912124 57.3609371,54.4643887 57.3609371,54.6780133 L57.3609371,57.1024817 Z M29.6752989,33.0849055 C29.6752989,33.2985302 29.5018485,33.4717065 29.2878859,33.4717065 L26.7939425,33.4717065 C26.5799799,33.4717065 26.4065295,33.2985302 26.4065295,33.0849055 L26.4065295,27.3850067 L21.2895789,27.3850067 L21.2895789,33.0849055 C21.2895789,33.2985302 21.1161286,33.4717065 20.902166,33.4717065 L18.4083333,33.4717065 C18.1943706,33.4717065 18.0209203,33.2985302 18.0209203,33.0849055 L18.0209203,18.421613 C18.0209203,18.2079884 18.1943706,18.0348121 18.4083333,18.0348121 L20.902166,18.0348121 C21.1161286,18.0348121 21.2895789,18.2079884 21.2895789,18.421613 L21.2895789,24.1215118 L26.4065295,24.1215118 L26.4065295,18.421613 C26.4065295,18.2079884 26.5799799,18.0348121 26.7939425,18.0348121 L29.2878859,18.0348121 C29.5018485,18.0348121 29.6752989,18.2079884 29.6752989,18.421613 L29.6752989,33.0849055 Z M24.8549959,51.7194281 L21.2622386,51.7194281 L21.2622386,57.1509976 C21.2622386,57.3646222 21.0887883,57.5377985 20.8748257,57.5377985 L18.387413,57.5377985 C18.1734503,57.5377985 18,57.3646222 18,57.1509976 L18,42.5320214 C18,42.3183968 18.1734503,42.137816 18.387413,42.137816 L24.69671,42.137816 C24.7088859,42.137816 24.7210617,42.1383686 24.7330162,42.1394737 L24.8549959,42.1394737 C27.5003624,42.1394737 29.6526075,44.2882083 29.6526075,46.9293957 C29.6526075,49.5705831 27.5003624,51.7194281 24.8549959,51.7194281 Z M24.8550291,45.4276355 L23.7916358,45.4276355 C23.7862121,45.4276355 23.780899,45.4275249 23.7755859,45.4273039 L21.2622719,45.4273039 L21.2622719,48.4320842 L23.7656238,48.4320842 C23.7741469,48.4315316 23.7828914,48.4312001 23.7916358,48.4312001 L24.8550291,48.4312001 C25.684425,48.4312001 26.3591877,47.7576139 26.3591877,46.9294178 C26.3591877,46.1013322 25.684425,45.4276355 24.8550291,45.4276355 Z" id="Fill-15" fill="#FFFFFF"></path>
            </g>
        </g>
    </g>
</svg>