<?xml version="1.0" encoding="UTF-8"?>
<svg width="97px" height="95px" viewBox="0 0 97 95" version="1.1" xmlns="http://www.w3.org/2000/svg" xmlns:xlink="http://www.w3.org/1999/xlink">
    <!-- Generator: Sketch 54.1 (76490) - https://sketchapp.com -->
    <title>Fill 1 Copy</title>
    <desc>Created with Sketch.</desc>
    <defs>
        <linearGradient x1="147.681972%" y1="58.4153548%" x2="-12.3919781%" y2="43.9590573%" id="linearGradient-1">
            <stop stop-color="#ED88FF" offset="0%"></stop>
            <stop stop-color="#2A74F2" offset="100%"></stop>
        </linearGradient>
    </defs>
    <g id="EN" stroke="none" stroke-width="1" fill="none" fill-rule="evenodd">
        <g id="h4_development" transform="translate(-1257.000000, -185.000000)" fill="url(#linearGradient-1)">
            <path d="M1362.68443,227.364128 C1359.97763,227.36439 1357.78303,229.599487 1357.78277,232.356248 C1357.78228,237.620189 1353.5769,241.903179 1348.40835,241.903679 C1343.23981,241.904179 1339.03524,237.622003 1339.03574,232.358062 C1339.03574,232.336973 1339.0344,232.316257 1339.03415,232.295168 C1338.96863,221.583974 1330.39422,212.891478 1319.86169,212.892497 C1309.32917,212.893516 1300.75311,221.587672 1300.68556,232.298878 C1300.68531,232.319968 1300.68396,232.340683 1300.68396,232.361773 C1300.68347,237.625714 1296.47809,241.908704 1291.30954,241.909204 C1286.141,241.909704 1281.93643,237.627528 1281.93693,232.363587 C1281.93693,232.342497 1281.93558,232.321782 1281.93534,232.300692 C1281.86982,221.589499 1273.2954,212.897002 1262.76288,212.898021 C1252.18931,212.899044 1243.58616,221.660965 1243.58515,232.429693 C1243.58488,235.186455 1245.77906,237.421127 1248.48586,237.420865 C1251.19266,237.420604 1253.38726,235.185506 1253.38752,232.428745 C1253.38801,227.164804 1257.59339,222.881814 1262.76194,222.881314 C1267.93048,222.880814 1272.13505,227.16299 1272.13455,232.426931 C1272.13455,232.448021 1272.13589,232.468736 1272.13614,232.489826 C1272.20166,243.201019 1280.77607,251.893516 1291.3086,251.892497 C1301.84112,251.891478 1310.41718,243.197321 1310.48473,232.486115 C1310.48498,232.465025 1310.48633,232.44431 1310.48633,232.42322 C1310.48683,227.159279 1314.6922,222.87629 1319.86075,222.875789 C1325.02929,222.875289 1329.23386,227.157466 1329.23336,232.421406 C1329.23336,232.442496 1329.23471,232.463211 1329.23495,232.484301 C1329.30047,243.195494 1337.87489,251.887991 1348.40741,251.886972 C1358.98098,251.885949 1367.58413,243.124028 1367.58515,232.3553 C1367.58541,229.598538 1365.39123,227.363866 1362.68443,227.364128" id="Fill-1-Copy" transform="translate(1305.585145, 232.392497) scale(-1, 1) rotate(41.000000) translate(-1305.585145, -232.392497) "></path>
        </g>
    </g>
</svg>