<?xml version="1.0" encoding="UTF-8"?>
<svg width="112px" height="111px" viewBox="0 0 112 111" version="1.1" xmlns="http://www.w3.org/2000/svg" xmlns:xlink="http://www.w3.org/1999/xlink">
    <!-- Generator: Sketch 53.2 (72643) - https://sketchapp.com -->
    <title>Fill 1</title>
    <desc>Created with Sketch.</desc>
    <defs>
        <linearGradient x1="147.681972%" y1="58.4153548%" x2="-83.1016028%" y2="39.6297471%" id="linearGradient-1">
            <stop stop-color="#ED88FF" offset="0%"></stop>
            <stop stop-color="#0049C6" offset="100%"></stop>
        </linearGradient>
        <path d="M907.684431,5615.36413 C904.977629,5615.36439 902.783034,5617.59949 902.782774,5620.35625 C902.782277,5625.62019 898.5769,5629.90318 893.408354,5629.90368 C888.239809,5629.90418 884.035242,5625.622 884.035739,5620.35806 C884.035741,5620.33697 884.034395,5620.31626 884.034152,5620.29517 C883.968631,5609.58397 875.394216,5600.89148 864.861691,5600.8925 C854.329165,5600.89352 845.753107,5609.58767 845.685561,5620.29888 C845.685314,5620.31997 845.683964,5620.34068 845.683962,5620.36177 C845.683465,5625.62571 841.478088,5629.9087 836.309543,5629.9092 C831.140998,5629.9097 826.93643,5625.62753 826.936928,5620.36359 C826.93693,5620.3425 826.935584,5620.32178 826.935341,5620.30069 C826.869819,5609.5895 818.295404,5600.897 807.762879,5600.89802 C797.189306,5600.89904 788.586163,5609.66096 788.585145,5620.42969 C788.584885,5623.18645 790.779057,5625.42113 793.485859,5625.42087 C796.192661,5625.4206 798.387256,5623.18551 798.387516,5620.42874 C798.388014,5615.1648 802.59339,5610.88181 807.761936,5610.88131 C812.930481,5610.88081 817.135048,5615.16299 817.134551,5620.42693 C817.134549,5620.44802 817.135895,5620.46874 817.136138,5620.48983 C817.201659,5631.20102 825.776074,5639.89352 836.3086,5639.8925 C846.841125,5639.89148 855.417183,5631.19732 855.484729,5620.48612 C855.484976,5620.46503 855.486326,5620.44431 855.486328,5620.42322 C855.486825,5615.15928 859.692202,5610.87629 864.860747,5610.87579 C870.029292,5610.87529 874.23386,5615.15747 874.233362,5620.42141 C874.23336,5620.4425 874.234706,5620.46321 874.234949,5620.4843 C874.300471,5631.19549 882.874886,5639.88799 893.407411,5639.88697 C903.980984,5639.88595 912.584127,5631.12403 912.585145,5620.3553 C912.585406,5617.59854 910.391233,5615.36387 907.684431,5615.36413" id="path-2"></path>
        <filter x="-12.5%" y="-21.8%" width="125.0%" height="179.5%" filterUnits="objectBoundingBox" id="filter-3">
            <feOffset dx="0" dy="7" in="SourceAlpha" result="shadowOffsetOuter1"></feOffset>
            <feGaussianBlur stdDeviation="4" in="shadowOffsetOuter1" result="shadowBlurOuter1"></feGaussianBlur>
            <feColorMatrix values="0 0 0 0 0.26901569   0 0 0 0 0.194244592   0 0 0 0 0.532099185  0 0 0 0.148191652 0" type="matrix" in="shadowBlurOuter1"></feColorMatrix>
        </filter>
    </defs>
    <g id="Page-1" stroke="none" stroke-width="1" fill="none" fill-rule="evenodd">
        <g id="h4_main" transform="translate(-790.000000, -5570.000000)">
            <g id="Fill-1" transform="translate(850.585145, 5620.392497) rotate(41.000000) translate(-850.585145, -5620.392497) ">
                <use fill="black" fill-opacity="1" filter="url(#filter-3)" xlink:href="#path-2"></use>
                <use fill="url(#linearGradient-1)" fill-rule="evenodd" xlink:href="#path-2"></use>
            </g>
        </g>
    </g>
</svg>