<?xml version="1.0" encoding="UTF-8"?>
<svg width="113px" height="90px" viewBox="0 0 113 90" version="1.1" xmlns="http://www.w3.org/2000/svg" xmlns:xlink="http://www.w3.org/1999/xlink">
    <!-- Generator: Sketch 58 (84663) - https://sketch.com -->
    <title>Combined Shape</title>
    <desc>Created with Sketch.</desc>
    <defs>
        <linearGradient x1="147.681972%" y1="80.4092038%" x2="-12.3919781%" y2="28.1708245%" id="linearGradient-1">
            <stop stop-color="#ED88FF" offset="0%"></stop>
            <stop stop-color="#2A74F2" offset="100%"></stop>
        </linearGradient>
        <path d="M68.4602606,9.19515916 C69.4084772,7.03124266 71.9313595,6.04572315 74.095276,6.99393972 C76.2591925,7.94215629 77.244712,10.4650386 76.2964954,12.6289551 L76.2964954,12.6289551 L45.8767423,82.0495998 C44.9285258,84.2135163 42.4056435,85.1990358 40.241727,84.2508192 C38.0778105,83.3026027 37.092291,80.7797203 38.0405075,78.6158038 L38.0405075,78.6158038 Z M95.1780696,16.0826363 L120.952758,42.334634 C121.84055,43.2388659 122.245006,44.4372922 122.169067,45.609588 C122.245006,46.7818838 121.84055,47.9803101 120.952758,48.884542 L95.1780696,75.1365397 C93.5228895,76.8223713 90.8144644,76.8472192 89.1286328,75.1920391 L88.4503066,74.5260461 C86.764475,72.870866 86.7396271,70.1624409 88.3948072,68.4766093 L110.846064,45.609588 L88.3948072,22.7425667 C86.7396271,21.0567351 86.764475,18.34831 88.4503066,16.6931299 L89.1286328,16.0271369 C90.8144644,14.3719568 93.5228895,14.3968047 95.1780696,16.0826363 Z M20.728492,23.1745724 L1.82305014,44.6589707 L24.268253,67.5198254 C28.2642112,71.5897829 22.159275,77.5837203 18.1633168,73.5137628 L-6.94537888,47.9400913 C-7.96156052,46.9050915 -8.32452041,45.7456685 -8.2350579,44.6589707 C-8.32452041,43.572273 -7.96156052,42.41285 -6.94537888,41.3778501 L14.6235558,17.180635 C18.619514,13.1106775 24.7244502,19.1046149 20.728492,23.1745724 Z" id="path-2"></path>
    </defs>
    <g id="Page-1" stroke="none" stroke-width="1" fill="none" fill-rule="evenodd">
        <mask id="mask-3" fill="white">
            <use xlink:href="#path-2"></use>
        </mask>
        <use id="Combined-Shape" fill="url(#linearGradient-1)" fill-rule="nonzero" transform="translate(56.964966, 45.622379) rotate(-32.000000) translate(-56.964966, -45.622379) " xlink:href="#path-2"></use>
    </g>
</svg>